<svg width="323" height="105" viewBox="0 0 323 105" fill="none" xmlns="http://www.w3.org/2000/svg">
<path d="M28.547 18.4301C44.4718 12.6507 61.163 8.9023 78.252 7.28756C97.3102 5.48694 116.383 6.3773 134.941 9.93329C159.311 14.6037 171.56 23.8375 177.664 32.544C159.778 35.7934 142.232 40.8161 125.389 47.6098C118.446 50.4101 110.517 53.9005 104.277 59.9045C97.3564 66.5629 94.0251 75.3012 95.3656 83.2794C96.803 91.8339 103.811 99.4479 113.221 102.677C120.505 105.177 129.022 105.32 139.257 103.116C155.371 99.6469 169.055 91.855 177.786 81.1815C188.103 68.5702 191.332 51.5879 186.013 37.9169C185.791 37.3448 185.549 36.7641 185.284 36.1759C230.225 29.1845 277.017 33.508 319.658 49.2383C320.914 49.7019 322.306 49.0584 322.768 47.8016C323.229 46.5445 322.586 45.1506 321.331 44.6876C277.393 28.4788 229.137 24.164 182.877 31.6492C176.605 21.531 163.405 10.4507 135.848 5.1698C116.841 1.52724 97.3083 0.615356 77.7936 2.4589C66.5034 3.52548 55.3823 5.49887 44.5298 8.35558C38.4924 9.94465 32.5382 11.8094 26.6849 13.9409L26.9948 0.875255L0.671557 26.7825L37.588 27.5914L28.547 18.4301ZM181.499 39.6745C186.193 51.7413 183.264 66.8268 174.037 78.1071C165.997 87.9352 153.284 95.1313 138.234 98.3746C128.885 100.388 121.215 100.295 114.788 98.0893C107.038 95.4293 101.289 89.3019 100.142 82.4782C99.084 76.177 101.955 68.868 107.635 63.4035C112.687 58.5426 119.111 55.3732 127.201 52.1091C144.302 45.2114 162.134 40.1727 180.315 36.9966C180.768 37.9079 181.16 38.8028 181.499 39.6745Z" fill="#3C3C3C"/>
</svg>
