<svg width="101" height="103" viewBox="0 0 101 103" fill="none" xmlns="http://www.w3.org/2000/svg">
<path d="M101 49.8306C100.997 46.057 100.562 42.2962 99.7033 38.6215L99.6742 38.5051C97.0187 27.5064 90.7303 17.724 81.8253 10.7386C72.9203 3.75318 61.9188 -0.0271075 50.5987 0.00861258L50.5405 0.00133278H50.4021C39.0682 -0.0813167 28.0417 3.68223 19.1257 10.6765C10.2098 17.6707 3.9321 27.4818 1.31936 38.5051L1.29023 38.6215C-0.780491 47.5587 -0.35221 56.893 2.52822 65.6033C2.96978 66.9516 3.68189 68.1956 4.621 69.2594C5.5601 70.3232 6.70646 71.1843 7.98995 71.7901C9.46529 72.5059 11.0835 72.8792 12.7235 72.8819C13.9038 72.8815 15.0766 72.6923 16.1971 72.3214L20.501 70.8366C22.8462 70.0667 24.8537 68.5114 26.1845 66.4334C27.5152 64.3554 28.0877 61.882 27.8051 59.431L26.2321 46.0384C25.9062 43.5569 24.74 41.2618 22.9275 39.535C21.115 37.8081 18.7655 36.7537 16.2699 36.5471L9.58478 36.0813C12.4918 27.6952 17.9341 20.4191 25.1591 15.2594C32.384 10.0997 41.0345 7.31132 49.9142 7.27992H50.5405C59.5275 7.13507 68.3284 9.84614 75.6745 15.0223C83.0207 20.1986 88.5328 27.5725 91.4161 36.0813L84.6799 36.5544C82.1855 36.7704 79.8402 37.8336 78.0343 39.567C76.2285 41.3005 75.0709 43.5997 74.7541 46.0821L73.1884 59.4747C72.9115 61.9145 73.4827 64.3753 74.806 66.4441C76.1293 68.5129 78.1243 70.0638 80.4562 70.8366L84.8474 72.3505C85.515 72.5249 86.1978 72.6346 86.8865 72.6781C83.5617 77.9221 79.1214 82.3692 73.8815 85.703C68.6416 89.0368 62.731 91.1753 56.5702 91.9663C55.9475 91.0841 55.1247 90.3617 54.1691 89.8583C53.2135 89.3548 52.1522 89.0845 51.0721 89.0695C49.8288 89.0521 48.6035 89.3675 47.5232 89.9829C46.443 90.5984 45.5471 91.4915 44.9287 92.5697C44.3102 93.6478 43.9916 94.8717 44.0058 96.1144C44.0201 97.3571 44.3668 98.5734 45.0099 99.6371C45.653 100.701 46.5692 101.573 47.6633 102.164C48.7574 102.754 49.9896 103.041 51.2322 102.995C52.4748 102.949 53.6824 102.572 54.7299 101.902C55.7774 101.233 56.6265 100.295 57.1892 99.1867C66.3794 98.0793 75.0755 94.4213 82.2922 88.6272C89.5089 82.8331 94.9577 75.1346 98.0211 66.4039C98.1376 66.1346 98.3634 65.9308 98.4581 65.6469C100.164 60.5514 101.022 55.2109 101 49.8379V49.8306ZM15.7092 43.7893C16.5333 43.858 17.3094 44.2055 17.9091 44.7746C18.5089 45.3436 18.8966 46.1001 19.0081 46.9191L20.5665 60.239C20.6556 61.0398 20.4651 61.8468 20.0272 62.5233C19.5892 63.1998 18.9307 63.7042 18.1633 63.951L13.8813 65.4213C12.9787 65.7108 11.9996 65.6457 11.1432 65.2393C10.741 65.0521 10.3816 64.7842 10.0872 64.4524C9.79288 64.1207 9.5698 63.732 9.43185 63.3105C7.30179 56.8458 6.74262 49.967 7.80061 43.2435L15.7092 43.7893ZM89.8431 65.2393C89.0079 65.6442 88.0501 65.7171 87.1632 65.4432L82.7938 63.9365C82.0389 63.6895 81.3916 63.1914 80.9596 62.5252C80.5276 61.859 80.3371 61.0649 80.4198 60.2754L81.9855 46.9482C82.0893 46.1315 82.4682 45.3745 83.0599 44.8016C83.6515 44.2288 84.4206 43.8744 85.2407 43.7966L93.1929 43.2435C94.227 49.7758 93.7132 56.4596 91.6928 62.7573C91.6709 62.8083 91.6272 62.8447 91.6127 62.9029C91.4816 63.3032 91.2777 63.6599 91.132 64.0675C90.8182 64.5645 90.3752 64.967 89.8504 65.2321L89.8431 65.2393ZM50.4968 30.8189C49.5467 30.8246 48.632 30.4589 47.948 29.7999C47.6018 29.4568 47.3271 29.0487 47.1396 28.5989C46.9521 28.1492 46.8556 27.6668 46.8556 27.1796C46.846 26.7024 46.9456 26.2294 47.1469 25.7967C47.3175 25.3504 47.5922 24.9511 47.948 24.6321C48.6373 23.982 49.5491 23.62 50.4968 23.62C51.4445 23.62 52.3563 23.982 53.0456 24.6321C53.3961 24.9565 53.6745 25.3509 53.8627 25.7898C54.0509 26.2287 54.1447 26.7022 54.1379 27.1796C54.1375 27.6667 54.0408 28.149 53.8534 28.5987C53.6659 29.0484 53.3914 29.4566 53.0456 29.7999C52.3615 30.4589 51.4469 30.8246 50.4968 30.8189ZM38.481 24.6321C38.8315 24.9565 39.1099 25.3509 39.2981 25.7898C39.4863 26.2287 39.58 26.7022 39.5733 27.1796C39.5729 27.6667 39.4762 28.149 39.2887 28.5987C39.1013 29.0484 38.8268 29.4566 38.481 29.7999C37.7969 30.4589 36.8822 30.8246 35.9322 30.8189C35.454 30.8369 34.9788 30.7369 34.5485 30.5277C34.1115 30.3733 33.7138 30.1248 33.3834 29.7999C33.0372 29.4568 32.7625 29.0487 32.575 28.5989C32.3875 28.1492 32.291 27.6668 32.291 27.1796C32.2843 26.7022 32.3781 26.2287 32.5662 25.7898C32.7544 25.3509 33.0328 24.9565 33.3834 24.6321C34.0726 23.982 34.9845 23.62 35.9322 23.62C36.8798 23.62 37.7917 23.982 38.481 24.6321ZM62.5126 29.7999C62.1396 29.4665 61.863 29.0392 61.7115 28.5625C61.5023 28.1325 61.4022 27.6575 61.4202 27.1796C61.4135 26.7022 61.5073 26.2287 61.6955 25.7898C61.8837 25.3509 62.162 24.9565 62.5126 24.6321C63.1932 23.9653 64.1083 23.5918 65.0614 23.5918C66.0145 23.5918 66.9296 23.9653 67.6102 24.6321C67.9607 24.9565 68.2391 25.3509 68.4273 25.7898C68.6155 26.2287 68.7093 26.7022 68.7025 27.1796C68.7188 27.6573 68.6188 28.1319 68.4113 28.5625C68.2595 29.039 67.9829 29.4663 67.6102 29.7999C66.9226 30.4532 66.0101 30.8175 65.0614 30.8175C64.1127 30.8175 63.2002 30.4532 62.5126 29.7999Z" fill="#34A853"/>
</svg>
