<svg width="106" height="106" viewBox="0 0 106 106" fill="none" xmlns="http://www.w3.org/2000/svg">
<path d="M97.5967 35.3065V11.5759C97.5967 6.10379 93.1466 1.65369 87.6745 1.65369H11.6043C6.13223 1.65369 1.68213 6.10379 1.68213 11.5759V67.8017V77.7239C1.68213 83.196 6.13223 87.6461 11.6043 87.6461H16.9375L15.0821 93.2141C14.5033 94.9471 15.4409 96.8208 17.174 97.3979C17.5213 97.5137 17.8752 97.5699 18.2208 97.5699C19.6066 97.5699 20.8965 96.6935 21.3578 95.3076L23.9112 87.6461H57.9079V94.2609C57.9079 99.7329 62.358 104.183 67.8301 104.183H94.2893C99.7614 104.183 104.212 99.7329 104.212 94.2609V44.6499C104.212 40.3387 101.445 36.6724 97.5967 35.3065ZM11.6043 8.26848H87.6745C89.4985 8.26848 90.9819 9.75185 90.9819 11.5759V34.7277H67.8301C62.358 34.7277 57.9079 39.1778 57.9079 44.6499V64.4943H8.29693V11.5759C8.29693 9.75185 9.7803 8.26848 11.6043 8.26848ZM11.6043 81.0313C9.7803 81.0313 8.29693 79.5479 8.29693 77.7239V71.1091H57.9079V81.0313H11.6043ZM97.5967 94.2609C97.5967 96.0849 96.1133 97.5683 94.2893 97.5683H67.8301C66.0061 97.5683 64.5227 96.0849 64.5227 94.2609V44.6499C64.5227 42.8258 66.0061 41.3425 67.8301 41.3425H94.2893C96.1133 41.3425 97.5967 42.8258 97.5967 44.6499V94.2609Z" fill="#34A853"/>
<path d="M81.0597 69.4553C74.678 69.4553 69.4838 74.6496 69.4838 81.0312C69.4838 87.4129 74.678 92.6071 81.0597 92.6071C87.4413 92.6071 92.6356 87.4129 92.6356 81.0312C92.6356 74.6496 87.4413 69.4553 81.0597 69.4553ZM81.0597 85.9923C78.3245 85.9923 76.0986 83.7665 76.0986 81.0312C76.0986 78.296 78.3245 76.0701 81.0597 76.0701C83.7949 76.0701 86.0208 78.296 86.0208 81.0312C86.0208 83.7665 83.7949 85.9923 81.0597 85.9923ZM71.1375 52.9184H74.4449C76.2706 52.9184 77.7523 51.4366 77.7523 49.611C77.7523 47.7853 76.2706 46.3036 74.4449 46.3036H71.1375C69.3118 46.3036 67.8301 47.7853 67.8301 49.611C67.8301 51.4366 69.3118 52.9184 71.1375 52.9184ZM90.9819 46.3036H87.6745C85.8488 46.3036 84.3671 47.7853 84.3671 49.611C84.3671 51.4366 85.8488 52.9184 87.6745 52.9184H90.9819C92.8076 52.9184 94.2893 51.4366 94.2893 49.611C94.2893 47.7853 92.8076 46.3036 90.9819 46.3036ZM74.4449 64.4943C76.2706 64.4943 77.7523 63.0125 77.7523 61.1869C77.7523 59.3612 76.2706 57.8795 74.4449 57.8795H71.1375C69.3118 57.8795 67.8301 59.3612 67.8301 61.1869C67.8301 63.0125 69.3118 64.4943 71.1375 64.4943H74.4449ZM90.9819 57.8795H87.6745C85.8488 57.8795 84.3671 59.3612 84.3671 61.1869C84.3671 63.0125 85.8488 64.4943 87.6745 64.4943H90.9819C92.8076 64.4943 94.2893 63.0125 94.2893 61.1869C94.2893 59.3612 92.8076 57.8795 90.9819 57.8795ZM18.2191 23.1518C19.0658 23.1518 19.9108 22.8293 20.5574 22.1827L23.8648 18.8753C25.1564 17.5838 25.1564 15.4902 23.8648 14.1986C22.5733 12.9071 20.4797 12.9071 19.1882 14.1986L15.8808 17.506C14.5892 18.7976 14.5892 20.8912 15.8808 22.1827C16.5274 22.8293 17.3724 23.1518 18.2191 23.1518ZM19.1882 35.4123C19.8348 36.0589 20.6798 36.3814 21.5265 36.3814C22.3732 36.3814 23.2182 36.0589 23.8648 35.4123L37.0944 22.1827C38.386 20.8912 38.386 18.7976 37.0944 17.506C35.8029 16.2145 33.7093 16.2145 32.4178 17.506L19.1882 30.7356C17.8966 32.0272 17.8966 34.1208 19.1882 35.4123Z" fill="#34A853"/>
</svg>
