<svg width="92" height="92" viewBox="0 0 92 92" fill="none" xmlns="http://www.w3.org/2000/svg">
<path d="M74.641 11.4061L41.8966 0.546255C40.5568 0.106655 39.1021 0.17573 37.81 0.740298C36.5179 1.30487 35.4789 2.3254 34.8912 3.60717C34.7609 3.57842 34.6382 3.52859 34.5002 3.52859H34.4945L15.3259 3.58034C14.5701 3.57915 13.8216 3.72796 13.1238 4.01815C12.426 4.30833 11.7927 4.73412 11.2606 5.27084C10.7261 5.80466 10.3027 6.43912 10.0149 7.13754C9.72701 7.83597 9.58041 8.58451 9.58355 9.33992L9.69088 45.7585C9.69392 46.2648 9.89719 46.7494 10.2563 47.1064C10.6154 47.4633 11.1012 47.6637 11.6075 47.6637H11.619C11.8707 47.6622 12.1197 47.6111 12.3517 47.5134C12.5836 47.4157 12.7941 47.2732 12.971 47.0942C13.1479 46.9151 13.2878 46.703 13.3827 46.4699C13.4776 46.2367 13.5257 45.9872 13.5242 45.7355L13.4169 9.33417C13.4169 8.82051 13.6162 8.33751 13.9765 7.97717C14.154 7.79784 14.3654 7.65564 14.5984 7.55889C14.8313 7.46214 15.0813 7.41277 15.3335 7.41367L33.5764 7.36384L32.3018 11.2087L24.984 11.201C24.732 11.2013 24.4807 11.2511 24.248 11.3478C24.0153 11.4444 23.8039 11.586 23.626 11.7643C23.448 11.9426 23.3069 12.1543 23.2107 12.3871C23.1145 12.62 23.0651 12.8696 23.0654 13.1215C23.0649 14.1379 22.6616 15.1126 21.9438 15.8322C21.226 16.5518 20.2523 16.9575 19.2359 16.9606C18.7279 16.9621 18.2413 17.1652 17.883 17.5254C17.5246 17.8855 17.3239 18.3731 17.325 18.8811L17.3441 40.0028C17.3451 40.5104 17.5475 40.997 17.9069 41.3556C18.2662 41.7142 18.7531 41.9156 19.2608 41.9156H19.2646C19.5163 41.9151 19.7655 41.865 19.9978 41.7682C20.2302 41.6714 20.4412 41.5298 20.6188 41.3515C20.7964 41.1732 20.9372 40.9616 21.033 40.7289C21.1289 40.4961 21.178 40.2468 21.1775 39.9951L21.1602 20.5505C22.4843 20.2036 23.6921 19.51 24.6589 18.5411C25.6258 17.5722 26.3169 16.363 26.661 15.0382L31.033 15.042L23.0999 38.9639C22.9528 39.4429 22.9991 39.9603 23.2289 40.4055C23.4587 40.8507 23.8536 41.1883 24.3292 41.3459C24.8047 41.5035 25.3231 41.4686 25.7733 41.2487C26.2234 41.0289 26.5696 40.6415 26.7377 40.1695L38.2684 5.39926C38.6019 4.39684 39.6867 3.85634 40.691 4.18409L73.4354 15.0458C73.6749 15.1245 73.8965 15.2497 74.0874 15.4144C74.2783 15.579 74.4347 15.7798 74.5476 16.0052C74.6606 16.2306 74.7278 16.4761 74.7455 16.7275C74.7632 16.979 74.7309 17.2315 74.6506 17.4704L67.3787 39.3952C67.2317 39.8741 67.278 40.3916 67.5077 40.8368C67.7375 41.282 68.1325 41.6195 68.608 41.7771C69.0836 41.9347 69.6019 41.8998 70.0521 41.68C70.5023 41.4601 70.8485 41.0727 71.0165 40.6008L78.2884 18.676C78.7675 17.2283 78.6525 15.6495 77.9687 14.2865C77.2848 12.9234 76.088 11.8875 74.641 11.4061Z" fill="#34A853"/>
<path d="M67.8901 23.8951C67.7773 23.6699 67.6213 23.4692 67.4309 23.3044C67.2404 23.1397 67.0194 23.0141 66.7803 22.9348C65.8165 22.6132 65.0193 21.9227 64.5634 21.0145C64.1076 20.1064 64.0301 19.0546 64.3481 18.0895C64.5082 17.6076 64.4703 17.0819 64.2428 16.6279C64.0153 16.1739 63.6167 15.8289 63.1348 15.6688L48.6468 10.8349C48.4078 10.7554 48.1555 10.7237 47.9042 10.7417C47.653 10.7598 47.4078 10.8271 47.1826 10.94C46.9574 11.0528 46.7567 11.209 46.5919 11.3994C46.4271 11.5899 46.3015 11.811 46.2222 12.0501C45.9014 13.0145 45.2109 13.8122 44.3024 14.2679C43.3939 14.7236 42.3417 14.8001 41.3768 14.4804C40.8944 14.3204 40.3682 14.3584 39.9139 14.5863C39.4595 14.8142 39.1143 15.2132 38.9542 15.6956L31.0652 39.3933C30.9048 39.8757 30.9426 40.402 31.1703 40.8565C31.398 41.3111 31.797 41.6565 32.2794 41.8169C32.7618 41.9773 33.2881 41.9394 33.7427 41.7117C34.1972 41.484 34.5426 41.0851 34.703 40.6027L42.063 18.492C43.429 18.5846 44.795 18.3099 46.0191 17.6966C47.2432 17.0832 48.2808 16.1534 49.0243 15.0037L60.3346 18.7795C60.2443 20.1459 60.5203 21.5117 61.1342 22.7358C61.7481 23.9599 62.6776 24.9979 63.8268 25.7428L59.29 39.3952C59.1296 39.8776 59.1675 40.4039 59.3952 40.8585C59.6229 41.313 60.0218 41.6584 60.5042 41.8188C60.9866 41.9792 61.513 41.9414 61.9675 41.7136C62.422 41.4859 62.7675 41.087 62.9278 40.6046L67.9936 25.3633C68.074 25.1238 68.1063 24.8708 68.0885 24.6188C68.0708 24.3669 68.0033 24.1209 67.8901 23.8951Z" fill="#34A853"/>
<path d="M55.8723 25.374C56.5387 23.3646 55.45 21.1953 53.4405 20.5289C51.431 19.8625 49.2618 20.9512 48.5954 22.9607C47.9289 24.9701 49.0177 27.1394 51.0271 27.8058C53.0366 28.4722 55.2058 27.3835 55.8723 25.374Z" fill="#34A853"/>
<path d="M63.2003 72.5803C64.2314 72.5803 65.0672 71.7222 65.0672 70.6636C65.0672 69.6051 64.2314 68.7469 63.2003 68.7469C62.1693 68.7469 61.3335 69.6051 61.3335 70.6636C61.3335 71.7222 62.1693 72.5803 63.2003 72.5803Z" fill="#34A853"/>
<path d="M72.8335 38.0803H19.1668C13.8826 38.0803 9.5835 42.3794 9.5835 47.6637V82.1637C9.5835 87.4479 13.8826 91.747 19.1668 91.747H72.8335C78.1178 91.747 82.4168 87.4479 82.4168 82.1637V47.6637C82.4168 42.3794 78.1178 38.0803 72.8335 38.0803ZM78.5835 76.4137H63.0489C59.9899 76.4137 57.5002 73.8338 57.5002 70.6637C57.5002 67.4935 59.9899 64.9137 63.0489 64.9137H78.5835V76.4137ZM78.5835 82.1637C78.5835 85.3338 76.0037 87.9137 72.8335 87.9137H19.1668C15.9967 87.9137 13.4168 85.3338 13.4168 82.1637V47.6637C13.4168 44.4935 15.9967 41.9137 19.1668 41.9137H72.8335C76.0037 41.9137 78.5835 44.4935 78.5835 47.6637V61.0803H63.0489C57.8758 61.0803 53.6668 65.3794 53.6668 70.6637C53.6668 75.9479 57.8739 80.247 63.0489 80.247H78.5835V82.1637Z" fill="#34A853"/>
</svg>
